<svg xmlns="http://www.w3.org/2000/svg" viewBox="0 0 64 64">
  <defs>
    <linearGradient id="bg" x1="0" y1="0" x2="1" y2="1">
      <stop offset="0" stop-color="#6366f1"/>
      <stop offset="1" stop-color="#d946ef"/>
    </linearGradient>
    <linearGradient id="liquid" x1="0" y1="1" x2="0" y2="0">
      <stop offset="0" stop-color="#ffffff"/>
      <stop offset="1" stop-color="#e0e7ff"/>
    </linearGradient>
  </defs>
  <rect width="64" height="64" rx="14" fill="url(#bg)"/>
  <g fill="#ffffff">
    <rect x="28" y="11" width="8" height="9.5" rx="2"/>
    <path d="M28 20 L20.5 33 L18 47 A5.5 5.5 0 0 0 23.5 52.5 L40.5 52.5 A5.5 5.5 0 0 0 46 47 L43.5 33 L36 20 Z"/>
  </g>
  <path d="M24.5 43 C24.8 46.5 23.9 50.3 23.5 52.5 L40.5 52.5 C40.1 50.3 39.2 46.5 39.5 43 Q32 45.8 24.5 43 Z" fill="url(#liquid)"/>
  <circle cx="31" cy="47.5" r="1.3" fill="#e879f9" opacity="0.9"/>
  <circle cx="35.5" cy="49.5" r="1" fill="#818cf8" opacity="0.9"/>
  <circle cx="33.5" cy="45.5" r="0.8" fill="#ffffff" opacity="0.9"/>
</svg>
